<svg width="16" height="16" viewBox="0 0 16 16" fill="none" xmlns="http://www.w3.org/2000/svg">
<path d="M9 0H1C0.447715 0 0 0.447715 0 1V11C0 11.5523 0.447715 12 1 12H9C9.55229 12 10 11.5523 10 11V1C10 0.447715 9.55229 0 9 0Z" fill="white"/>
<path d="M15.1234 4.08496L12.1234 3.70996L11.8754 5.69396L13.8824 5.94496L12.8874 13.883L5.94136 13.012L5.69336 15L13.6314 16C13.6728 16.0051 13.7146 16.0077 13.7564 16.008C14.0001 16.0079 14.2353 15.9188 14.418 15.7575C14.6007 15.5962 14.7181 15.3738 14.7484 15.132L15.9914 5.19996C16.0242 4.93688 15.9512 4.67154 15.7884 4.46226C15.6256 4.25299 15.3864 4.11692 15.1234 4.08396V4.08496Z" fill="white"/>
</svg>
